<?xml version="1.0" encoding="UTF-8"?>
<!DOCTYPE svg PUBLIC "-//W3C//DTD SVG 1.1//EN" "http://www.w3.org/Graphics/SVG/1.1/DTD/svg11.dtd">
<!-- Creator: CorelDRAW 2017 -->
<svg xmlns="http://www.w3.org/2000/svg" xml:space="preserve" width="239.66mm" height="176.929mm" version="1.1" style="shape-rendering:geometricPrecision; text-rendering:geometricPrecision; image-rendering:optimizeQuality; fill-rule:evenodd; clip-rule:evenodd"
viewBox="0 0 20687.78 15272.78"
 xmlns:xlink="http://www.w3.org/1999/xlink">
 <defs>
  <style type="text/css">
   <![CDATA[
    .fil2 {fill:#FEFEFE}
    .fil1 {fill:#0F355D}
    .fil0 {fill:#0F355D;fill-rule:nonzero}
   ]]>
  </style>
 </defs>
 <g id="Слой_x0020_1">
  <metadata id="CorelCorpID_0Corel-Layer"/>
  <path class="fil0" d="M12248.66 9939.52l-188.13 652.03 -209.5 -652.03 -262.95 0 365.56 1015.46 -36.34 128.27c-27.79,94.06 -55.58,147.51 -134.68,147.51l-79.1 0 0 243.71 130.41 0c179.57,0 267.23,-149.65 322.81,-346.32l350.59 -1188.62 -258.67 0zm816.98 0l0 440.39 -250.13 0 0 -440.39 -252.27 0 0 1130.9 252.27 0 0 -457.49 250.13 0 0 457.49 252.26 0 0 -1130.9 -252.26 0zm545.47 -175.3c83.38,0 147.51,-68.41 147.51,-147.51 0,-85.51 -64.13,-147.51 -147.51,-147.51 -85.51,0 -145.37,62 -145.37,147.51 0,83.38 59.86,147.51 145.37,147.51zm-126.13 1306.2l252.27 0 0 -1130.9 -252.27 0 0 1130.9zm1022.2 -598.59c74.82,-51.3 115.45,-130.41 115.45,-211.64 0,-203.09 -123.99,-320.67 -357.02,-320.67l-361.29 0 0 1130.9 369.84 0c275.78,0 406.19,-126.13 406.19,-329.22 0,-113.31 -47.04,-220.2 -173.17,-269.37zm-361.28 -329.22l100.47 0c83.38,0 130.41,49.17 130.41,123.99 0,83.38 -47.03,126.13 -128.27,126.13l-102.61 0 0 -250.13zm141.09 720.44l-141.09 0 0 -265.08 141.09 0c100.48,0 145.37,42.76 145.37,132.55 0,87.65 -44.89,132.54 -145.37,132.54zm1017.93 -149.65c-19.24,98.35 -57.72,141.1 -162.47,141.1 -94.06,0 -147.51,-59.86 -147.51,-194.54l0 -66.27 549.42 0 0 -252.27c0,-271.5 -151.79,-429.7 -404.05,-429.7 -247.99,0 -397.63,158.2 -397.63,429.7l0 318.54c0,273.64 149.64,436.11 395.49,436.11 247.98,0 399.77,-141.09 421.15,-382.67l-254.4 0zm-162.47 -566.51c98.34,0 151.79,59.86 151.79,192.4l0 74.82 -299.29 0 0 -74.82c0,-132.55 53.44,-192.4 147.51,-192.4zm975.17 -233.02c-96.21,0 -192.4,57.72 -247.98,128.27l-14.97 -104.75 -175.3 0 0 1517.84 245.85 0 0 -431.83c51.31,47.03 119.72,74.82 192.4,74.82 218.06,0 363.42,-168.89 363.42,-440.4l0 -301.43c0,-271.5 -145.37,-442.53 -363.42,-442.53zm106.89 743.95c0,136.82 -51.31,200.96 -145.37,200.96 -98.34,0 -153.92,-72.68 -153.92,-200.96l0 -301.43c0,-134.68 59.86,-203.09 153.92,-203.09 91.92,0 145.37,66.27 145.37,203.09l0 301.43zm763.52 438.25c250.13,0 401.91,-156.06 408.33,-421.15l-254.41 0c-6.41,119.71 -53.44,179.57 -149.64,179.57 -91.93,0 -143.23,-59.86 -143.23,-179.57l0 -344.19c0,-117.58 51.3,-177.43 143.23,-177.43 89.78,0 138.95,59.86 143.23,177.43l254.4 0c-8.55,-262.95 -145.37,-419.01 -401.91,-419.01 -245.84,0 -393.35,156.06 -393.35,419.01l0 344.19c0,265.08 147.51,421.15 393.35,421.15zm509.13 -25.65l256.54 0 141.09 -307.84c51.31,-109.03 136.82,-380.53 147.51,-427.57l6.41 2.14c-8.55,126.13 -10.7,295.02 -10.7,399.77l0 333.49 241.58 0 0 -1130.9 -254.41 0 -141.09 327.08c-44.9,119.72 -123.99,342.05 -143.23,404.05l-4.27 -2.13c0,-143.23 2.14,-252.27 2.14,-348.46l0 -380.53 -241.58 0 0 1130.9zm1593 -1130.9l-741.82 0 0 239.43 245.85 0 0 891.47 252.26 0 0 -891.47 243.71 0 0 -239.43zm579.68 773.88c-19.24,98.35 -57.72,141.1 -162.47,141.1 -94.06,0 -147.51,-59.86 -147.51,-194.54l0 -66.27 549.42 0 0 -252.27c0,-271.5 -151.79,-429.7 -404.05,-429.7 -247.99,0 -397.63,158.2 -397.63,429.7l0 318.54c0,273.64 149.64,436.11 395.49,436.11 247.98,0 399.77,-141.09 421.15,-382.67l-254.4 0zm-162.47 -566.51c98.34,0 151.79,59.86 151.79,192.4l0 74.82 -299.29 0 0 -74.82c0,-132.55 53.44,-192.4 147.51,-192.4zm1180.4 -207.37l-741.82 0 0 239.43 245.85 0 0 891.47 252.26 0 0 -891.47 243.71 0 0 -239.43z"/>
  <path class="fil0" d="M11593.71 9183.71l241.57 0 0 -252.26 551.55 0 0 252.26 241.58 0 0 -481 -130.41 0 0 -902.16 -696.92 0c-4.28,190.26 -14.97,380.53 -25.65,568.65 -8.55,126.13 -29.93,254.41 -94.06,333.5l-87.65 0 0 481zm376.25 -481c29.94,-81.24 44.9,-171.03 51.31,-271.51 10.69,-132.54 14.97,-265.08 17.1,-397.63l209.51 0 0 669.14 -277.92 0zm1307.53 -128.27c-19.24,98.35 -57.72,141.1 -162.47,141.1 -94.06,0 -147.51,-59.86 -147.51,-194.54l0 -66.27 549.42 0 0 -252.27c0,-271.5 -151.79,-429.7 -404.05,-429.7 -247.99,0 -397.63,158.2 -397.63,429.7l0 318.54c0,273.64 149.64,436.11 395.49,436.11 247.98,0 399.77,-141.09 421.15,-382.67l-254.4 0zm-162.47 -566.51c98.34,0 151.79,59.86 151.79,192.4l0 74.82 -299.29 0 0 -74.82c0,-132.55 53.44,-192.4 147.51,-192.4zm1014.65 -233.02c-96.21,0 -192.4,57.72 -247.98,128.27l-14.97 -104.75 -175.3 0 0 1517.84 245.85 0 0 -431.83c51.31,47.03 119.72,74.82 192.4,74.82 218.06,0 363.42,-168.89 363.42,-440.4l0 -301.43c0,-271.5 -145.37,-442.53 -363.42,-442.53zm106.89 743.95c0,136.82 -51.31,200.96 -145.37,200.96 -98.34,0 -153.92,-72.68 -153.92,-200.96l0 -301.43c0,-134.68 59.86,-203.09 153.92,-203.09 91.92,0 145.37,66.27 145.37,203.09l0 301.43zm1403.73 412.6l277.91 0 -369.84 -649.89 324.95 -481.01 -288.61 0 -141.09 245.84c-36.34,62 -74.82,132.55 -113.31,203.1l0 -448.94 -241.57 0 0 451.07c-38.48,-70.54 -76.96,-141.09 -113.31,-205.23l-141.09 -245.84 -288.61 0 324.95 481.01 -371.98 649.89 280.05 0 250.12 -455.35 59.86 64.14 0 391.22 241.57 0 0 -391.22 59.86 -64.14 250.13 455.35zm689.71 -1158.69c-239.44,0 -386.94,138.96 -397.63,367.7l252.26 0c10.69,-87.65 70.55,-123.99 141.09,-123.99 94.06,0 128.27,66.28 128.27,181.72l0 55.58 -132.55 0c-247.98,0 -421.15,115.44 -421.15,354.88 0,207.37 132.54,352.74 339.91,352.74 128.27,0 207.37,-59.86 250.13,-136.82l14.96 106.89 203.1 0 0 -733.27c0,-275.78 -121.86,-425.43 -378.39,-425.43zm123.99 812.37c0,96.2 -59.86,156.06 -153.93,156.06 -96.2,0 -143.23,-55.58 -143.23,-132.55 0,-91.92 62,-141.09 168.89,-141.09l128.27 0 0 117.58zm1061.67 -252.27c74.82,-51.3 115.45,-130.41 115.45,-211.64 0,-203.09 -123.99,-320.67 -357.02,-320.67l-361.29 0 0 1130.9 369.84 0c275.78,0 406.19,-126.13 406.19,-329.22 0,-113.31 -47.04,-220.2 -173.17,-269.37zm-361.28 -329.22l100.47 0c83.38,0 130.41,49.17 130.41,123.99 0,83.38 -47.03,126.13 -128.27,126.13l-102.61 0 0 -250.13zm141.09 720.44l-141.09 0 0 -265.08 141.09 0c100.48,0 145.37,42.76 145.37,132.55 0,87.65 -44.89,132.54 -145.37,132.54zm1023.2 -923.53l0 440.39 -250.13 0 0 -440.39 -252.27 0 0 1130.9 252.27 0 0 -457.49 250.13 0 0 457.49 252.26 0 0 -1130.9 -252.26 0zm458.81 1130.9l256.54 0 141.09 -307.84c51.31,-109.03 136.82,-380.53 147.51,-427.57l6.41 2.14c-8.55,126.13 -10.7,295.02 -10.7,399.77l0 333.49 241.58 0 0 -1130.9 -254.41 0 -141.09 327.08c-44.9,119.72 -123.99,342.05 -143.23,404.05l-4.27 -2.13c0,-143.23 2.14,-252.27 2.14,-348.46l0 -380.53 -241.58 0 0 1130.9zm1384.49 -1306.2c147.51,0 256.54,-91.92 262.94,-260.81l-166.75 0c-2.13,64.14 -44.89,100.48 -98.34,100.48 -55.58,0 -96.2,-36.34 -98.34,-100.48l-168.89 0c6.41,164.62 117.58,260.81 269.37,260.81zm-395.5 1306.2l256.54 0 141.09 -307.84c51.31,-109.03 136.82,-380.53 147.51,-427.57l6.41 2.14c-8.55,126.13 -10.7,295.02 -10.7,399.77l0 333.49 241.58 0 0 -1130.9 -254.41 0 -141.09 327.08c-44.9,119.72 -123.99,342.05 -143.23,404.05l-4.27 -2.13c0,-143.23 2.14,-252.27 2.14,-348.46l0 -380.53 -241.58 0 0 1130.9z"/>
  <path class="fil0" d="M12146.65 6976.83c288.6,0 457.49,-166.75 468.18,-470.31l-262.95 0c-10.69,149.64 -74.82,215.92 -205.23,215.92 -111.16,0 -177.44,-70.55 -177.44,-220.2l0 -598.58c0,-153.93 66.28,-224.47 175.3,-224.47 128.27,0 192.4,66.27 200.96,220.19l262.95 0c-12.83,-305.71 -175.3,-474.59 -461.77,-474.59 -280.05,0 -448.94,168.88 -448.94,478.87l0 598.58c0,307.85 171.03,474.6 448.94,474.6zm1106.97 -1156.55l-188.13 652.03 -209.5 -652.03 -262.95 0 365.56 1015.46 -36.34 128.27c-27.79,94.06 -55.58,147.51 -134.68,147.51l-79.1 0 0 243.71 130.41 0c179.57,0 267.23,-149.65 322.81,-346.32l350.59 -1188.62 -258.67 0zm1030.01 0l-141.09 348.46c-36.34,89.78 -68.41,175.3 -94.06,267.23l-6.41 0c-25.65,-91.92 -57.71,-177.44 -91.92,-267.23l-143.23 -348.46 -250.13 0 0 1130.9 233.02 0 0 -350.6c0,-121.85 -8.55,-256.53 -14.97,-361.28l12.83 -4.28c32.07,109.03 62,213.78 89.79,297.15l55.58 147.51 226.6 0 55.58 -147.51c25.65,-83.37 57.72,-188.12 87.65,-297.15l12.83 4.28c-4.27,104.75 -12.83,239.43 -12.83,361.28l0 350.6 233.02 0 0 -1130.9 -252.27 0zm773.48 1156.55c250.13,0 401.91,-156.06 408.33,-421.15l-254.41 0c-6.41,119.71 -53.44,179.57 -149.64,179.57 -91.93,0 -143.23,-59.86 -143.23,-179.57l0 -344.19c0,-117.58 51.3,-177.43 143.23,-177.43 89.78,0 138.95,59.86 143.23,177.43l254.4 0c-8.55,-262.95 -145.37,-419.01 -401.91,-419.01 -245.84,0 -393.35,156.06 -393.35,419.01l0 344.19c0,265.08 147.51,421.15 393.35,421.15zm910.3 -782.44l-160.33 0 0 -374.12 -252.27 0 0 1130.9 412.6 0c220.2,0 374.12,-153.92 374.12,-382.66 0,-224.47 -153.92,-374.12 -374.12,-374.12zm-32.07 530.17l-128.27 0 0 -305.7 128.27 0c94.06,0 151.79,53.44 151.79,149.65 0,98.34 -57.72,156.05 -151.79,156.05zm1042.83 226.61l286.47 0 -380.53 -652.03 327.09 -478.87 -295.02 0 -149.65 254.4c-34.2,59.86 -72.68,128.27 -111.16,198.82l0 -453.21 -250.13 0 0 1130.9 250.13 0 0 -386.94 62 -66.27 260.81 453.21zm315.98 0l256.54 0 141.09 -307.84c51.31,-109.03 136.82,-380.53 147.51,-427.57l6.41 2.14c-8.55,126.13 -10.7,295.02 -10.7,399.77l0 333.49 241.58 0 0 -1130.9 -254.41 0 -141.09 327.08c-44.9,119.72 -123.99,342.05 -143.23,404.05l-4.27 -2.13c0,-143.23 2.14,-252.27 2.14,-348.46l0 -380.53 -241.58 0 0 1130.9zm1333.58 -1306.2c147.51,0 256.54,-91.92 262.94,-260.81l-166.75 0c-2.13,64.14 -44.89,100.48 -98.34,100.48 -55.58,0 -96.2,-36.34 -98.34,-100.48l-168.89 0c6.41,164.62 117.58,260.81 269.37,260.81zm-395.5 1306.2l256.54 0 141.09 -307.84c51.31,-109.03 136.82,-380.53 147.51,-427.57l6.41 2.14c-8.55,126.13 -10.7,295.02 -10.7,399.77l0 333.49 241.58 0 0 -1130.9 -254.41 0 -141.09 327.08c-44.9,119.72 -123.99,342.05 -143.23,404.05l-4.27 -2.13c0,-143.23 2.14,-252.27 2.14,-348.46l0 -380.53 -241.58 0 0 1130.9z"/>
  <g id="_2052265764928">
   <g id="факел">
    <path class="fil1" d="M4370.48 2583.57c218.7,35.8 153.54,-141.56 566.98,473.54 134.5,190.95 98.64,154.08 366.47,159.1l888.79 -2.06c105.84,0.26 282.48,13.41 385.91,2.47 83.27,-8.83 198.14,-209.5 247.25,-278.33 258,-361.49 174.7,-330.9 454.34,-336.9 22.33,-94.49 36.51,-292.09 8.88,-399.62l-2916.19 -6.39 -2.43 388.18z"/>
    <path class="fil1" d="M5456.29 5395.58c271.94,-57.45 575.92,-58.16 801.32,-11.3l138.61 -1938.07 -1098.34 -1.78c-1.95,110.51 133.56,1716.51 158.41,1951.15z"/>
    <path class="fil1" d="M5846.16 11542.55c181.2,14.33 176.64,-127.69 183.38,-190.61l71.03 -1071.28 -510.67 -9.57 66.74 690.41c33.77,317.89 -16.51,564.79 189.52,581.05z"/>
   </g>
   <path id="у" class="fil1" d="M8810.09 7311.89l689.26 -441.7 3.58 -2804.3c25.6,-323.9 232.75,-507.86 481.43,-618.68 135.25,-60.32 182.23,-48.79 350.16,-70.84l-0.28 -421.15 -2392.33 0.83 0.03 426.62c583.91,3.3 843.63,349.51 866.56,675.22l1.58 3253.99zm681.75 -39.54l-684.79 336.58 0.09 803.52c3.12,1700.78 -860,4453.76 -3392.46,4105.75 0,0 240.32,365.96 153.14,563.57 1697.44,-45.61 3953.06,-1428.9 3927.86,-4960.23 -2.06,-108.67 -3.38,-322.7 -3.84,-849.2z"/>
   <path id="у_0" class="fil1" d="M1607.29 10540.75c138.21,343.11 328.73,621.21 524.75,931.64 285.66,408.15 600.14,663.35 985.48,939.5 365.5,261.93 680.58,380.72 1109.46,524.32 551.69,184.7 1356.28,202.85 1935.32,65.13 74.25,-17.69 160.39,-28.52 229.11,-50.22 83.79,-26.43 117.76,-47.16 204.37,-71.96 210.64,-60.37 581.05,-223.94 761.48,-335.43l326.25 -210.94c-14.59,-9.4 28.64,-20.67 -48.53,-7.88l-662.98 194.77c-417.68,66.59 -369.11,78.89 -838.59,77.91 -437.29,-0.89 -425.01,-13.39 -814.57,-101.28 -258.08,-58.22 -435.62,-135.48 -682.27,-231.69 -299.22,-153.33 -570.9,-339.27 -820.3,-564.62 -470.65,-425.36 -759.53,-1013.51 -844.18,-1637.99 0,0 -1359.43,529.71 -1364.8,478.74zm1327.05 -639.53c-64.07,-485.96 -29.64,-1018.36 -25.74,-1419.49 11.72,-1217.51 -13.28,-2439.75 -3.3,-3657.14 2.67,-327.2 -21.3,-896.16 131.49,-1138.85 60.61,-96.23 134.77,-164.14 236.56,-222.05 120.61,-68.65 206.18,-74.94 345.47,-110.79l0.43 -398.16 -3311.08 -0.8 -1 373.53c271.42,34.37 620.55,64.15 792.73,314.48 99.85,145.19 121.72,221.93 147.2,408.33 21.07,154.23 9.63,718.76 8.83,885.15 -3.64,727.62 2.49,1460.48 4.15,2188.73 0.86,369.26 0.72,738.75 0.41,1108.23 -0.63,786.99 -32.79,1325.42 231.08,1985.12 0,0 467.72,-51.26 792.01,-135.42 135.93,-35.29 620.09,-174.87 650.76,-180.86z"/>
   <path id="орбита" class="fil1" d="M6398.75 9364.37c1410.88,-662.28 1935.88,-883.6 2931.87,-1630.53 607.09,-455.28 1837.1,-1326.04 1577.8,-2207.31 -80.04,-272.02 -548.57,-467.61 -1330.15,-339.11l0.03 260.13c0,0 952.29,-223.05 1088.73,205.07 147.59,463.1 -645.68,1014.23 -1339.06,1504.83 -2025.41,1433.02 -5194.62,2727.37 -7345.14,3138.32 -605.19,115.64 -1552.66,143.39 -1702.89,-135.35 -110.51,-259.76 140.07,-618.09 909.61,-1208.61l2.71 -310.17c-867.96,623.17 -1329.29,1233.21 -1156.27,1628.82 162.15,370.73 1215.93,617.55 2168.54,458.6 721.03,-120.3 2358.6,-503.02 4194.21,-1364.68zm2310.91 -3725.69l-1.29 -267.61c-455.7,109.43 -1068.21,332.59 -1444.18,483.8 74.86,43.32 185.5,122.28 235.13,157.55 310.98,-97.78 893.24,-313.66 1210.33,-373.73zm-5726.59 2332.92l468.9 -267.16 38.46 -323.35 -505.02 286.54 -2.34 303.96z"/>
   <path id="пламя" class="fil1" d="M6060.07 994.68c14.51,-74.18 203.25,-287.47 158.62,-474.35l-22.16 -62.35c-1.09,-2.41 -2.99,-7.05 -5.16,-10.18 -97.38,37.58 -54.41,80.49 -288.68,157.61 -126.11,41.51 -237.93,67.03 -375.36,81.33 -164.46,17.08 -493.33,130.6 -640.33,259.49 -414.29,363.27 -26.46,998.77 405.5,1042.3 96.46,-219.96 47.01,-365.99 427.99,-447.29 162.74,-34.72 437.98,-46.38 546.77,-115.58 22.79,-14.5 33.77,-24.33 66.82,-44.98l61.23 -22.99c58.34,-3.15 40.8,260.24 11.39,344.26 -35.12,100.33 -93.25,165.81 -127.06,253.5 111.66,-0.37 347.79,-100.02 452.96,-162.34 657.56,-389.53 434.05,-997.72 724.58,-1559.76 58.05,-112.24 112.46,-154.69 181.92,-233.35 -172.23,1.73 -313.99,94.31 -449.64,172.61 -193.73,111.8 -351.42,279.76 -518.5,452.1 -97.69,100.8 -226.66,223.63 -343.17,293.49 -96.86,58.08 -119.91,70.43 -267.72,76.48z"/>
   <path class="fil1" d="M5910.67 7829.21l-728.95 1404.23c-8.01,16 -12.75,26.77 -21.21,42.47l-129.83 247.59c-9.91,22.5 7.26,39.4 33.84,79.99 9.86,15.05 15.55,23.13 25.55,38.13l321.4 495.8c13.27,19.37 12.03,18.5 40.21,23.48 348.89,61.64 773.67,44.16 1099.3,-62.81 209.8,-68.92 398.58,-144.3 585.86,-268.59 93.15,-61.82 242.93,-166.64 322.5,-245.33 25.24,-24.96 46.42,-48.27 75.53,-67.75l-34.1 -363.84c-18.29,-127.45 -25.54,-323.41 -43.26,-450.18 -10.72,-76.7 -15.95,-204.75 -25.71,-276.73 -7.79,-57.4 16.99,-44.34 -66.86,-81.72l-514.72 -233.59c-10.76,-4.8 -21.23,-10.97 -31.99,-15.77 -12.94,-5.77 -24.65,-9.74 -37.16,-15.91 -143.05,-70.65 -332.23,-149.98 -481.19,-219.36l-171.5 -77.93c-14.12,-6.4 -20.1,-11.83 -37.26,-15.82 -62.94,42.13 -36.43,63.67 -180.46,63.67z"/>
   <path class="fil1" d="M4318.3 7097.03c-26.68,0 -23.76,-4.76 -47.77,-5.3 -35.8,67.62 -104.64,237.69 -145.09,321.87l-146.1 326.16c-53.11,130.85 -61.46,92.82 -20.94,157.39l465.01 718.33c15.5,24.78 30.03,45.1 46.72,70.03l371.52 573.04c16.92,25.34 29.07,46.42 45.64,71.1 13.73,20.47 76.91,132.89 99.8,138.99l838.71 -1618.15c9.09,-17.45 17.25,-35.69 26.47,-53.12 -41.43,-61.85 -58.39,-30.76 -58.39,-169.78l-499.69 -227.4c-57.28,-23.19 -110.41,-52.13 -167.57,-76.56l-543.01 -247.76c-15.99,-7.13 -27.35,-11.08 -44.14,-19.55 -29.14,-14.69 -55.68,-24.33 -83.18,-38.88 -29.63,44.23 -83.27,79.58 -138,79.58z"/>
   <path class="fil1" d="M4403.23 6794.61c24.7,16.53 56.06,46.79 63.7,79.59 15.9,-7.63 92.61,-19.05 118.99,-24.33 42.59,-8.51 78.35,-15.66 119.43,-23.87 141.55,-28.3 1658.95,-333.81 1698.96,-333.81 0,-49.25 22.77,-87.02 47.42,-111.77 63.05,-63.33 129.77,-42.76 159.59,-42.1 6.54,-28.07 26.04,-52.22 39,-77.73l279.47 -543.02 -109.69 -49.52c-37.89,-18.26 -76.83,-31.82 -117,-47.53 -538.32,-210.56 -1173.3,-196.79 -1706.9,15.94 -81.07,32.32 -87.83,26.93 -106.55,68.57l-108.02 242.2c-17.38,40.34 -35.89,82.74 -54.66,120.44l-270.55 604.99c-8.72,19.4 -18.53,40.93 -25.89,59.02 -8.89,21.87 -22.44,42.15 -27.29,62.92z"/>
   <path class="fil1" d="M6728.07 6492.19c0,34.43 -1.65,43.33 -11.2,68.38 -6.74,17.64 -17.77,35.28 -30.45,49.15 -63.56,69.57 -139.2,46.93 -170.66,46.93 -6.33,27.13 -39.7,79.27 -54.86,109.65l-143.33 275.88c-10.38,20.94 -17.84,35.72 -28.29,56.61 -19.76,39.51 -36.86,68.38 -56.62,107.88l-173.39 336.02c57.21,38.29 58.38,108.47 58.38,164.47 21.93,1.83 141.01,60.3 162.72,70.8l80.7 36.06c14.36,5.81 24.15,11.52 39.65,18.73 17.19,8 27.32,10.86 44.28,19.41l444.05 203.43c15.57,7.25 26.88,10.7 40.77,17.6 52.92,26.31 109.72,50.02 164.42,74.41l240.46 109.82c15.68,6.69 23.76,11.91 39.09,19.28 16.66,8 29.5,11.56 44.31,19.39l-43.31 -476.67c-15.94,-153.6 -31.36,-318.09 -46.44,-473.53 -13.52,-139.38 -27.22,-340.91 -44.47,-475.49l-40.54 -415.76c-1.85,-23.89 -5.31,-45.21 -5.71,-63.27 -82.01,19.09 -166.18,33.74 -251.68,50.84l-257.88 49.96z"/>
   <path class="fil1" d="M7487.1 8327.94c12.27,5.88 24.74,9.66 37.23,15.84l268.79 123.94c14.38,6.91 22.81,9.11 37.25,15.83l272.45 125.58c32.91,-68.55 80.68,-276.32 94.04,-356.97 76.64,-463.01 38.37,-871.86 -128.92,-1290.04 -69.83,-174.55 -166.9,-355.16 -275.2,-504.83 -19.69,-27.21 -37.3,-49.61 -56.89,-75.78 -10.09,-13.48 -16.97,-21.67 -28.05,-35.62 -15.24,-19.21 -17.63,-16.76 -29.61,-39.39l-334.01 64.06c-41.54,7.65 -42.32,-3.15 -38.98,31.69l140.41 1479.07c4.95,43.75 12.31,104.64 14.81,149.67 1.64,29.69 3.44,44.1 5.92,73.67 1.56,18.54 3.91,50.07 7.09,72.49 6.09,43.01 13.68,108.66 13.68,150.8z"/>
   <path class="fil1" d="M4753.55 9914.32l170.1 -328.71c30.28,-51.43 28.28,-36.55 -32.15,-127.52l-592.23 -914.81c-14.54,-22.19 -25.99,-38.9 -40.42,-60.4l-317.45 -489.14c-8.34,-12.55 -33.48,-50.2 -37.1,-63.72l-10.62 0c-3.99,17.14 -9.43,23.13 -15.82,37.24l-180.47 403.22c-21.84,48.59 -41.42,98.27 -65.67,146.62 -23.96,47.8 -0.14,78.38 27.75,156.39 25.93,72.52 94.41,224.38 134.39,290.11 108.96,179.14 109.06,195.24 257.38,379.4 46.54,57.77 134.46,160.35 181.97,197.03l137 120.82c54.56,47.68 325.06,239.91 383.35,253.49z"/>
   <path class="fil1" d="M4477.54 6937.86l0 21.23c24.93,2.07 95.41,41.57 125.86,54.59l714.54 325.67c110.69,51.56 404.78,178.2 502.49,229.89 34.4,-23.02 70.53,-83.96 180.47,-58.36l56.68 -107.82c65.95,-131.93 399.8,-765.23 399.8,-778.22 0,-15.18 -34.67,-35.5 -42.46,-68.98 -19.02,1.59 -38.55,7.36 -58.39,10.62 -22.68,3.72 -38.83,7.23 -62.37,11.94 -36.8,7.35 -82.64,16.51 -119.43,23.88l-1572.9 311.26c-38.12,7.62 -89.28,21.41 -124.29,24.32z"/>
   <path class="fil1" d="M3819.37 6656.66l366.25 169.79c58.76,-39.34 62.95,-58.36 159.23,-58.36 7.76,-33.28 97.83,-222.04 114.53,-262.22l347.25 -782.99 -154.22 84.6c-128.42,76.82 -302.36,204.63 -409.73,312 -37.2,37.2 -86.7,80.76 -119.19,119.62 -83.1,99.37 -131.06,150.15 -209.63,267.96l-71.07 109.35c-9.81,16.31 -13.65,25.69 -23.41,40.26z"/>
   <path class="fil1" d="M7593.26 9447.43c47.78,-31.98 177.27,-209.73 213.81,-258.48 67.1,-89.54 182.82,-294.79 227.51,-403.96 7.07,-17.26 15.26,-36.11 24,-55.59 9.41,-20.98 13.14,-37.95 23,-56.59 -24.01,-12.71 -44.23,-22.59 -72.07,-34.07l-511.79 -231.21 28.05 322.13c2.06,16.08 3.85,46.39 6.83,67.45 2.84,20.04 5.07,47.01 6.68,62.3l16.98 195.26c2.07,37.42 7.89,89.55 13.51,129.75l23.49 263.02z"/>
   <path class="fil1" d="M3617.67 7107.64c-2.48,29.69 -47.77,147.66 -47.77,191 0,9.63 233.82,354.49 275.75,424.7 11.26,18.86 25.65,46.69 42.71,58.11l80.36 -179.65c53.82,-131.26 144.09,-313.66 202.5,-450.18 13.47,-31.49 26.1,-63.72 40.93,-91.73 -15.58,-10.44 -37.54,-37.26 -42.46,-58.36 -29.05,0 -413.15,78.73 -480.82,92.4 -23.25,4.7 -50.01,11.95 -71.2,13.71z"/>
   <path class="fil1" d="M6669.69 6364.86c13.69,20.42 36.13,36.51 42.47,63.66l452.49 -88.87c22.18,-4.44 45.94,-11.45 67.68,-11.94 -2.24,-100.29 -42.46,-359.42 -42.46,-456.29 -32.17,-21.53 -63.9,-39.22 -97.69,-61.51 -21.53,-14.2 -83.48,-53.06 -109.32,-55.21 -8.51,36.54 -56.99,113.81 -76.08,152.1l-157.46 304.19c-13.28,26.56 -24.39,50.08 -40.23,76.52 -15.38,25.68 -25.98,52.01 -39.4,77.35z"/>
   <path class="fil1" d="M3506.2 7813.29c0,196.25 18.51,382.34 63.63,567.76 5.01,20.56 14.2,47.42 15.99,68.91 14.45,-16.61 61.07,-126.31 68.26,-143.99l65.96 -146.29c14.8,-34.36 131.17,-288.75 131.17,-298.64 0,-15.22 -205.69,-324.39 -222.93,-350.17 -15.49,-23.17 -63.06,-104.6 -79.61,-116.72 -11.55,24.08 -25.73,160.92 -30.34,197.81 -8.68,69.43 -12.12,146.87 -12.12,221.33z"/>
   <path class="fil1" d="M4811.93 9951.46c19.91,4.64 180.61,80.6 243.51,101.46 65.05,21.58 213.46,77.64 271.35,78.93 -4.82,-18.04 -28.63,-48.28 -40.34,-65.79 -15.62,-23.38 -25.79,-41.49 -41.37,-64.76l-213.4 -327.86c-8.32,-12.46 -13.49,-19.14 -21.03,-32.03 -11.18,-19.12 -7.16,-23.71 -28.87,-29.5 -8.24,35.36 -45.93,93.02 -63.77,127.26l-63.86 127.17c-12.72,21.88 -35.98,58.3 -42.23,85.12z"/>
   <path class="fil1" d="M3644.2 7033.37l490.13 -93.7c19.66,-5.51 16.31,-2.42 19.85,-22.59 1.98,-11.26 4.03,-27.37 4.88,-37.58l-93.8 -38.89c-30.73,-14.31 -59.56,-29.03 -90.45,-42.23l-187.31 -83.36 -110.77 234.15c-11.45,27.79 -20.26,58.61 -32.54,84.2z"/>
   <path class="fil1" d="M7296.02 6311.8l160.54 -30.52c57.88,-11.7 109.06,-20.53 163.24,-33.14 -22.87,-34.13 -51.53,-59.46 -80.95,-88.88 -65.4,-65.36 -152.63,-143.51 -226.14,-198.4 -14.48,-10.81 -37.12,-31.9 -53.85,-36.37l37.15 387.31z"/>
   <path class="fil2" d="M4202.9 9589.3c68.79,39.55 70.24,7.04 139.03,46.59 1270.61,-438.52 2874.4,-1189.3 3914.41,-1792.33 44.52,-136.79 36.84,-49.05 81.37,-185.84 -1306.46,697.12 -2689.44,1387.16 -4134.8,1931.58z"/>
  </g>
  <path class="fil0" d="M3735.87 14904.72c280.73,0 445,-162.2 455.4,-457.48l-255.77 0c-10.39,145.56 -72.78,210.02 -199.63,210.02 -108.13,0 -172.59,-68.62 -172.59,-214.18l0 -582.25c0,-149.72 64.46,-218.34 170.51,-218.34 124.77,0 187.15,64.46 195.47,214.19l255.77 0c-12.47,-297.36 -170.51,-461.64 -449.16,-461.64 -272.4,0 -436.68,164.28 -436.68,465.79l0 582.25c0,299.44 166.36,461.64 436.68,461.64zm1129.18 -1124.98l-182.98 634.23 -203.79 -634.23 -255.77 0 355.58 987.73 -35.35 124.76c-27.04,91.5 -54.07,143.48 -131.01,143.48l-76.94 0 0 237.06 126.85 0c174.67,0 259.93,-145.56 313.99,-336.87l341.03 -1156.16 -251.62 0zm1054.32 0l-137.24 338.94c-35.36,87.34 -66.55,170.52 -91.5,259.93l-6.24 0c-24.95,-89.41 -56.14,-172.59 -89.41,-259.93l-139.32 -338.94 -243.3 0 0 1100.02 226.66 0 0 -341.03c0,-118.53 -8.32,-249.53 -14.55,-351.42l12.47 -4.16c31.19,106.05 60.3,207.95 87.34,289.05l54.06 143.48 220.42 0 54.06 -143.48c24.96,-81.1 56.14,-182.99 85.26,-289.05l12.47 4.16c-4.16,101.89 -12.47,232.9 -12.47,351.42l0 341.03 226.65 0 0 -1100.02 -245.37 0zm1376.63 860.88l0 -1216.47 -748.25 0 -25.3 650.86c-8.31,212.1 -49.9,438.76 -168.43,565.6l-89.42 0 0 484.51 251.62 0 0 -245.38 659.18 0 0 245.38 251.62 0 0 -484.51 -131.01 0zm-253.69 0l-388.51 0c73.12,-131 108.48,-301.52 114.71,-492.83l18.71 -482.43 255.08 0 0 975.26zm1068.88 -1216.47l-189.23 650.86 -207.95 -650.86 -270.32 0 363.9 1045.96c-47.82,162.19 -93.57,203.78 -205.86,203.78l-62.38 0 0 228.74 54.06 0c243.3,0 351.42,-68.63 440.84,-355.58l345.18 -1122.9 -268.24 0z"/>
 </g>
</svg>
